<svg width="21" height="22" viewBox="0 0 21 22" fill="none" xmlns="http://www.w3.org/2000/svg">
<path d="M9.93139 2.16071C11.2565 2.16068 12.5541 2.53466 13.6714 3.23866C14.7887 3.94265 15.6794 4.94737 16.2385 6.13461C16.7977 7.32185 17.0021 8.64222 16.8278 9.94037C16.6534 11.2385 16.1075 12.4605 15.2543 13.4624L20.6885 18.8336C20.7942 18.9389 20.8558 19.0797 20.8611 19.2279C20.8664 19.3761 20.8149 19.5209 20.717 19.6332C20.619 19.7456 20.4818 19.8173 20.3327 19.8341C20.1835 19.8509 20.0335 19.8115 19.9125 19.7238L19.8457 19.6664L14.4107 14.2961C13.5547 15.0079 12.5376 15.5053 11.4456 15.7459C10.3537 15.9865 9.2191 15.9634 8.13814 15.6783C7.05719 15.3933 6.06174 14.8548 5.23622 14.1086C4.41071 13.3624 3.77949 12.4304 3.39609 11.3917C3.0127 10.353 2.88845 9.23828 3.03388 8.14203C3.17931 7.04578 3.59013 6.00036 4.23149 5.09445C4.87285 4.18853 5.72584 3.44885 6.7181 2.93813C7.71036 2.42742 8.81262 2.16073 9.93139 2.16071ZM9.93139 3.33928C8.40265 3.33928 6.93652 3.93944 5.85554 5.00772C4.77455 6.07601 4.16726 7.52492 4.16726 9.03571C4.16726 10.5465 4.77455 11.9954 5.85554 13.0637C6.93652 14.132 8.40265 14.7321 9.93139 14.7321C11.4601 14.7321 12.9263 14.132 14.0073 13.0637C15.0882 11.9954 15.6955 10.5465 15.6955 9.03571C15.6955 7.52492 15.0882 6.07601 14.0073 5.00772C12.9263 3.93944 11.4601 3.33928 9.93139 3.33928Z" fill="#7E7E7E"/>
</svg>
