<svg width="25" height="21" viewBox="0 0 25 21" fill="none" xmlns="http://www.w3.org/2000/svg">
<g clip-path="url(#clip0_67_8343)">
<g clip-path="url(#clip1_67_8343)">
<path d="M14.2298 21.938L14.2346 13.2316C15.8014 12.556 16.9035 11.0131 16.8987 9.18746C16.8987 6.9833 15.2839 5.16727 13.1708 4.83665L13.166 8.52142L11.8196 8.50705L11.81 4.84623C9.70168 5.17206 8.08211 6.99289 8.0869 9.19225C8.0869 10.9747 9.15064 12.5081 10.6792 13.2029L10.6792 21.9332L11.3548 22.6088L13.559 22.6088L14.2298 21.938ZM12.0304 21.2624L12.0304 12.1966C11.5225 12.1199 11.0673 11.9235 10.6792 11.6312C9.93168 11.0754 9.44293 10.1937 9.44293 9.19704C9.43814 8.29142 9.83106 7.47684 10.4588 6.91622L10.4588 9.87745L14.5221 9.87745L14.5317 6.90664C15.1594 7.48643 15.5379 8.28663 15.5427 9.19225C15.5431 9.682 15.4248 10.1646 15.1978 10.5985C14.9708 11.0325 14.6419 11.4049 14.2394 11.6839C13.8362 11.9675 13.3683 12.1454 12.8785 12.2014L12.8833 21.2624L12.0304 21.2624Z" fill="#7E7E7E"/>
</g>
</g>
<mask id="mask0_67_8343" style="mask-type:luminance" maskUnits="userSpaceOnUse" x="0" y="0" width="25" height="21">
<path d="M0.5 -5.72205e-06H24.5V20.9999H0.5V-5.72205e-06Z" fill="white"/>
</mask>
<g mask="url(#mask0_67_8343)">
<mask id="mask1_67_8343" style="mask-type:luminance" maskUnits="userSpaceOnUse" x="0" y="-1" width="25" height="22">
<path d="M0.5 20.9994H24.499V-0.000900269H0.5V20.9994Z" fill="white"/>
</mask>
<g mask="url(#mask1_67_8343)">
<path d="M18.5004 0.000198364H6.50085L0.50061 10.5003L6.50085 21.0005H18.5004L24.5006 10.5003L18.5004 0.000198364ZM17.6296 1.49981L22.7722 10.5003L17.6296 19.4999H7.37072L2.22807 10.5003L7.37072 1.49981H17.6296Z" fill="#BDBDBD"/>
</g>
</g>
<defs>
<clipPath id="clip0_67_8343">
<rect width="10" height="18" fill="white" transform="translate(7.5 2)"/>
</clipPath>
<clipPath id="clip1_67_8343">
<rect width="16.2634" height="16.2634" fill="white" transform="translate(12.5 2) rotate(45)"/>
</clipPath>
</defs>
</svg>
