<svg width="21" height="20" viewBox="0 0 21 20" fill="none" xmlns="http://www.w3.org/2000/svg">
<path d="M2.52083 6.12427H10.8021C10.9224 6.71228 11.2422 7.24068 11.7072 7.62015C12.1722 7.99962 12.754 8.20688 13.3542 8.20688C13.9544 8.20688 14.5361 7.99962 15.0012 7.62015C15.4662 7.24068 15.7859 6.71228 15.9063 6.12427H18.1458C18.284 6.12427 18.4164 6.0694 18.5141 5.97172C18.6118 5.87405 18.6667 5.74157 18.6667 5.60344C18.6667 5.46531 18.6118 5.33283 18.5141 5.23515C18.4164 5.13748 18.284 5.08261 18.1458 5.08261H15.9063C15.7859 4.4946 15.4662 3.9662 15.0012 3.58673C14.5361 3.20726 13.9544 3 13.3542 3C12.754 3 12.1722 3.20726 11.7072 3.58673C11.2422 3.9662 10.9224 4.4946 10.8021 5.08261H2.52083C2.3827 5.08261 2.25022 5.13748 2.15255 5.23515C2.05487 5.33283 2 5.46531 2 5.60344C2 5.74157 2.05487 5.87405 2.15255 5.97172C2.25022 6.0694 2.3827 6.12427 2.52083 6.12427ZM13.3542 4.04094C13.7686 4.04094 14.166 4.20556 14.459 4.49858C14.752 4.79161 14.9167 5.18904 14.9167 5.60344C14.9167 6.01784 14.752 6.41527 14.459 6.70829C14.166 7.00132 13.7686 7.16594 13.3542 7.16594C12.9398 7.16594 12.5423 7.00132 12.2493 6.70829C11.9563 6.41527 11.7917 6.01784 11.7917 5.60344C11.7917 5.18904 11.9563 4.79161 12.2493 4.49858C12.5423 4.20556 12.9398 4.04094 13.3542 4.04094ZM2.52083 14.0409H4.86458C4.98494 14.6289 5.30466 15.1573 5.76967 15.5368C6.23469 15.9163 6.81647 16.1235 7.41667 16.1235C8.01686 16.1235 8.59865 15.9163 9.06366 15.5368C9.52868 15.1573 9.84839 14.6289 9.96875 14.0409H18.1458C18.284 14.0409 18.4164 13.9861 18.5141 13.8884C18.6118 13.7907 18.6667 13.6582 18.6667 13.5201C18.6667 13.382 18.6118 13.2495 18.5141 13.1518C18.4164 13.0541 18.284 12.9993 18.1458 12.9993H9.96875C9.84839 12.4113 9.52868 11.8829 9.06366 11.5034C8.59865 11.1239 8.01686 10.9167 7.41667 10.9167C6.81647 10.9167 6.23469 11.1239 5.76967 11.5034C5.30466 11.8829 4.98494 12.4113 4.86458 12.9993H2.52083C2.3827 12.9993 2.25022 13.0541 2.15255 13.1518C2.05487 13.2495 2 13.382 2 13.5201C2 13.6582 2.05487 13.7907 2.15255 13.8884C2.25022 13.9861 2.3827 14.0409 2.52083 14.0409ZM7.41667 11.9576C7.83107 11.9576 8.2285 12.1222 8.52152 12.4153C8.81455 12.7083 8.97917 13.1057 8.97917 13.5201C8.97917 13.9345 8.81455 14.3319 8.52152 14.625C8.2285 14.918 7.83107 15.0826 7.41667 15.0826C7.00227 15.0826 6.60484 14.918 6.31181 14.625C6.01879 14.3319 5.85417 13.9345 5.85417 13.5201C5.85417 13.1057 6.01879 12.7083 6.31181 12.4153C6.60484 12.1222 7.00227 11.9576 7.41667 11.9576Z" fill="white"/>
</svg>
