<svg width="25" height="24" viewBox="0 0 25 24" fill="none" xmlns="http://www.w3.org/2000/svg">
<path d="M8.00032 8.84594C7.17205 8.84594 6.50073 9.50006 6.50073 10.3071C6.50073 11.1151 7.17205 11.7692 8.00032 11.7692C8.82859 11.7692 9.49991 11.1151 9.49991 10.3071C9.49991 9.50006 8.82859 8.84594 8.00032 8.84594ZM8.00032 10.3071L7.99843 10.308L8.00032 10.3071Z" fill="#7E7E7E"/>
<path d="M12.5001 8.84594C11.6718 8.84594 11.0005 9.50006 11.0005 10.3071C11.0005 11.1151 11.6718 11.7692 12.5001 11.7692C13.3283 11.7692 13.9997 11.1151 13.9997 10.3071C13.9997 9.50006 13.3283 8.84594 12.5001 8.84594ZM12.5001 10.3071L12.4982 10.308L12.5001 10.3071Z" fill="#7E7E7E"/>
<path d="M17.0001 8.84594C16.1718 8.84594 15.5005 9.50006 15.5005 10.3071C15.5005 11.1151 16.1718 11.7692 17.0001 11.7692C17.8283 11.7692 18.4997 11.1151 18.4997 10.3071C18.4997 9.50006 17.8283 8.84594 17.0001 8.84594ZM17.0001 10.3071L16.9982 10.308L17.0001 10.3071Z" fill="#7E7E7E"/>
<g opacity="0.5">
<mask id="mask0_299_69" style="mask-type:luminance" maskUnits="userSpaceOnUse" x="0" y="3" width="25" height="19">
<path d="M0.5 3H24.5V22H0.5V3Z" fill="white"/>
</mask>
<g mask="url(#mask0_299_69)">
<mask id="mask1_299_69" style="mask-type:luminance" maskUnits="userSpaceOnUse" x="0" y="3" width="25" height="19">
<path d="M0.5 22H24.499V3H0.5V22Z" fill="white"/>
</mask>
<g mask="url(#mask1_299_69)">
<path d="M17.0002 2.99957H8.0008C3.8585 2.99957 0.500977 6.27112 0.500977 10.3073C0.500977 14.3436 3.8585 17.6151 8.0008 17.6151H8.89999L12.5005 21.9996L16.1001 17.6151H17.0002C21.1425 17.6151 24.5 14.3436 24.5 10.3073C24.5 6.27112 21.1425 2.99957 17.0002 2.99957ZM17.0002 4.46076C20.3086 4.46076 23.0005 7.0837 23.0005 10.3073C23.0005 13.531 20.3086 16.1539 17.0002 16.1539H16.1001H15.3796L14.9286 16.7021L12.5005 19.6604L10.0715 16.7021L9.62141 16.1539H8.89999H8.0008C4.69244 16.1539 2.00056 13.531 2.00056 10.3073C2.00056 7.0837 4.69244 4.46076 8.0008 4.46076H17.0002Z" fill="#7E7E7E"/>
</g>
</g>
</g>
</svg>
