<svg width="25" height="24" viewBox="0 0 25 24" fill="none" xmlns="http://www.w3.org/2000/svg">
<path d="M17.7499 13.0454C14.0217 13.0454 10.9998 16.1588 10.9998 19.9999H24.5001C24.5001 16.1588 21.4781 13.0454 17.7499 13.0454ZM17.7499 14.5904C20.1241 14.5904 22.1343 16.2221 22.7811 18.4539H12.7178C13.3655 16.2221 15.3757 14.5904 17.7499 14.5904Z" fill="#7E7E7E"/>
<path d="M17.6872 4.54576C15.6165 4.54576 13.9373 6.27586 13.9373 8.40925C13.9373 10.5426 15.6165 12.2727 17.6872 12.2727C19.758 12.2727 21.4372 10.5426 21.4372 8.40925C21.4372 6.27586 19.758 4.54576 17.6872 4.54576ZM17.6872 6.09077C18.9278 6.09077 19.9376 7.13116 19.9376 8.40925C19.9376 9.68734 18.9278 10.7277 17.6872 10.7277C16.4467 10.7277 15.4369 9.68734 15.4369 8.40925C15.4369 7.13116 16.4467 6.09077 17.6872 6.09077Z" fill="#7E7E7E"/>
<mask id="mask0_67_8310" style="mask-type:luminance" maskUnits="userSpaceOnUse" x="3" y="3" width="9" height="9">
<path d="M3.73169 3H11.9815V11.4995H3.73169V3Z" fill="white"/>
</mask>
<g mask="url(#mask0_67_8310)">
<g opacity="0.5">
<mask id="mask1_67_8310" style="mask-type:luminance" maskUnits="userSpaceOnUse" x="3" y="3" width="9" height="9">
<path d="M3.73169 11.4995H11.9815V3H3.73169V11.4995Z" fill="white"/>
</mask>
<g mask="url(#mask1_67_8310)">
<path d="M7.85595 3.00034C5.57816 3.00034 3.73059 4.90286 3.73059 7.25057C3.73059 9.5973 5.57816 11.4998 7.85595 11.4998C10.1337 11.4998 11.9813 9.5973 11.9813 7.25057C11.9813 4.90286 10.1337 3.00034 7.85595 3.00034ZM7.85595 4.54535C9.30356 4.54535 10.4807 5.75914 10.4807 7.25057C10.4807 8.74102 9.30356 9.95481 7.85595 9.95481C6.40834 9.95481 5.23115 8.74102 5.23115 7.25057C5.23115 5.75914 6.40834 4.54535 7.85595 4.54535Z" fill="#7E7E7E"/>
</g>
</g>
</g>
<mask id="mask2_67_8310" style="mask-type:luminance" maskUnits="userSpaceOnUse" x="0" y="12" width="14" height="8">
<path d="M0.5 12.35H13.3233V20H0.5V12.35Z" fill="white"/>
</mask>
<g mask="url(#mask2_67_8310)">
<g opacity="0.5">
<mask id="mask3_67_8310" style="mask-type:luminance" maskUnits="userSpaceOnUse" x="0" y="12" width="14" height="8">
<path d="M0.5 20H13.3233V12.35H0.5V20Z" fill="white"/>
</mask>
<g mask="url(#mask3_67_8310)">
<path d="M2.19226 18.4543C2.85791 15.8339 5.17541 13.8953 7.92502 13.8953C9.65818 13.8953 11.2193 14.6668 12.3038 15.8923C12.6016 15.4744 12.9439 15.0916 13.324 14.7516C11.97 13.2738 10.0525 12.3503 7.92502 12.3503C3.82425 12.3503 0.499756 15.7754 0.499756 19.9993H10.9999C10.9999 19.4684 11.0595 18.9521 11.1691 18.4543H2.19226Z" fill="#7E7E7E"/>
</g>
</g>
</g>
</svg>
