<?xml version="1.0" encoding="UTF-8"?>
<svg xmlns="http://www.w3.org/2000/svg" xmlns:xlink="http://www.w3.org/1999/xlink" width="48px" height="48px" viewBox="0 0 48 47" version="1.1">
<g id="surface1">
<path style=" stroke:none;fill-rule:nonzero;fill:rgb(0%,0%,0%);fill-opacity:1;" d="M 4.546875 0.0507812 C 3.265625 0.1875 2.039062 0.824219 1.222656 1.785156 C 0.535156 2.585938 0.132812 3.523438 0.0234375 4.558594 C -0.0078125 4.894531 -0.0078125 42.105469 0.0234375 42.441406 C 0.269531 44.84375 2.179688 46.710938 4.628906 46.953125 C 5.9375 47.078125 7.296875 46.675781 8.347656 45.84375 C 8.59375 45.648438 8.9375 45.308594 9.128906 45.066406 C 9.367188 44.765625 19.53125 29.980469 19.601562 29.828125 C 19.660156 29.707031 19.667969 29.667969 19.667969 29.433594 C 19.667969 29.1875 19.664062 29.164062 19.589844 29.019531 C 19.292969 28.425781 18.578125 28.210938 18.054688 28.554688 C 17.996094 28.59375 15.726562 30.507812 13.003906 32.8125 C 10.285156 35.117188 8.015625 37.023438 7.960938 37.054688 C 7.78125 37.152344 7.597656 37.097656 7.46875 36.917969 L 7.414062 36.839844 L 7.421875 23.597656 C 7.429688 10.394531 7.429688 10.351562 7.476562 10.289062 C 7.585938 10.148438 7.820312 10.085938 7.980469 10.15625 C 8.015625 10.171875 14.5 17.75 23.035156 27.75 C 31.28125 37.410156 38.097656 45.390625 38.183594 45.480469 C 38.953125 46.285156 40.125 46.832031 41.324219 46.953125 C 41.644531 46.984375 43.046875 46.984375 43.371094 46.953125 C 45.820312 46.710938 47.734375 44.839844 47.976562 42.441406 C 48.007812 42.101562 48.007812 4.894531 47.976562 4.558594 C 47.703125 1.90625 45.394531 -0.0703125 42.695312 0.03125 C 41.117188 0.0898438 39.679688 0.8125 38.761719 2.007812 C 38.492188 2.355469 28.390625 17.058594 28.339844 17.167969 C 28.269531 17.339844 28.242188 17.550781 28.269531 17.710938 C 28.371094 18.253906 28.871094 18.644531 29.417969 18.605469 C 29.734375 18.582031 29.832031 18.519531 30.707031 17.773438 C 31.128906 17.410156 33.273438 15.585938 35.472656 13.710938 C 37.671875 11.839844 39.574219 10.214844 39.707031 10.101562 C 39.84375 9.988281 39.980469 9.882812 40.019531 9.871094 C 40.183594 9.808594 40.359375 9.867188 40.472656 10.019531 L 40.523438 10.082031 L 40.53125 23.34375 L 40.535156 36.605469 L 40.484375 36.683594 C 40.453125 36.726562 40.398438 36.78125 40.363281 36.808594 C 40.273438 36.871094 40.0625 36.886719 39.96875 36.839844 C 39.917969 36.816406 34.316406 30.269531 24.886719 19.21875 C 16.230469 9.074219 9.78125 1.539062 9.652344 1.410156 C 8.925781 0.707031 7.996094 0.25 6.9375 0.078125 C 6.734375 0.0507812 6.492188 0.0390625 5.710938 0.03125 C 5.175781 0.03125 4.652344 0.0390625 4.546875 0.0507812 Z M 4.546875 0.0507812 "/>
</g>
</svg>
